<svg width="65" height="65" fill="none" xmlns="http://www.w3.org/2000/svg"><path fill-rule="evenodd" clip-rule="evenodd" d="M32.802 64.221c17.673 0 32-14.327 32-32 0-17.673-14.327-32-32-32-17.673 0-32 14.327-32 32 0 17.674 14.327 32 32 32zm-7.894-44.894h15.788a5 5 0 015 5v15.788a5 5 0 01-5 5H24.908a5 5 0 01-5-5V24.327a5 5 0 015-5zm-8 5a8 8 0 018-8h15.788a8 8 0 018 8v15.788a8 8 0 01-8 8H24.908a8 8 0 01-8-8V24.327zm21.297 7.894a5.402 5.402 0 11-10.805 0 5.402 5.402 0 0110.805 0zm3 0a8.402 8.402 0 11-16.805 0 8.402 8.402 0 0116.805 0z" fill="#BEB893"/></svg>