<svg width="169" height="26" fill="none" xmlns="http://www.w3.org/2000/svg"><path d="M16.332 24.436h.188c.603 0 .904-.268.904-.805a1.92 1.92 0 00-.113-.623l-2.5-6.247H6.24l-2.193 6.1a1.53 1.53 0 00-.113.55c0 .317.088.574.264.769.176.17.364.256.565.256h.189v.366H.769v-.366h.188c.327 0 .641-.183.943-.549.326-.39.59-.842.79-1.355L11.32.2l8.44 22.114c.177.488.415.964.717 1.428.326.463.74.695 1.243.695h.189v.366h-5.577v-.366zm-9.619-8.864h7.66l-3.77-10.357-3.89 10.357zm23.48 8.864h.188v.366H26.2v-.366h.188a.69.69 0 00.49-.22 1.64 1.64 0 00.414-.512c.1-.195.176-.403.226-.623.076-.244.114-.463.114-.659V2.909c0-.17-.026-.366-.076-.586a1.794 1.794 0 00-.188-.622 1.285 1.285 0 00-.415-.476.968.968 0 00-.64-.22h-.189V.638h3.806L43.231 17.4l.377-14.491c0-.17-.038-.366-.113-.586a1.947 1.947 0 00-.264-.622 1.463 1.463 0 00-.377-.476.734.734 0 00-.527-.22h-.189V.638h4.22v.366h-.188a.733.733 0 00-.527.22 1.99 1.99 0 00-.415.476c-.1.195-.176.403-.226.622-.05.22-.075.415-.075.586v21.894L28.949 3.787v18.636c0 .195.025.414.076.659.05.22.125.427.226.622.125.195.264.366.414.512.151.147.327.22.528.22zm37.039-6.114c0 1.22-.251 2.27-.754 3.149a6.332 6.332 0 01-1.96 2.086c-.778.537-1.67.928-2.675 1.172-.98.244-1.96.366-2.939.366-1.005 0-1.872-.098-2.6-.293-.729-.195-1.394-.378-1.997-.549a15.25 15.25 0 00-1.093-.293 3.403 3.403 0 00-.98-.146V19.64h.377c0 .927.239 1.672.716 2.233.503.537 1.08.952 1.733 1.245a7.483 7.483 0 001.96.586c.653.073 1.13.11 1.432.11 1.08 0 2.01-.147 2.788-.44.78-.317 1.42-.72 1.922-1.208a4.766 4.766 0 001.093-1.684c.251-.61.377-1.233.377-1.867 0-.806-.176-1.477-.528-2.014a5.195 5.195 0 00-1.394-1.464 8.401 8.401 0 00-1.922-1.062c-.728-.293-1.47-.586-2.223-.879a76.8 76.8 0 01-2.525-.988 10.165 10.165 0 01-2.223-1.245 6.385 6.385 0 01-1.583-1.794c-.402-.708-.603-1.575-.603-2.6 0-1.074.214-2.001.641-2.782a5.72 5.72 0 011.696-1.977A7.707 7.707 0 0156.417.675c.93-.269 1.871-.403 2.826-.403.653 0 1.269.049 1.847.146.577.074 1.13.171 1.658.293.427.098.841.183 1.243.257a9.69 9.69 0 001.168.073v3.77h-.377c-.05-1.268-.565-2.123-1.544-2.562-.98-.464-2.337-.696-4.07-.696-1.005 0-1.834.171-2.487.513-.628.317-1.13.72-1.508 1.208a4.1 4.1 0 00-.79 1.538 6.352 6.352 0 00-.19 1.428c0 .683.151 1.269.453 1.757.326.488.754.915 1.281 1.282.528.366 1.13.695 1.809.988.703.293 1.432.574 2.185.842.855.318 1.721.66 2.6 1.025.88.367 1.659.818 2.337 1.355a6.204 6.204 0 011.695 1.977c.453.781.679 1.733.679 2.856zm27.67 6.114h.188a.814.814 0 00.528-.183c.15-.146.276-.317.376-.512.126-.196.214-.403.264-.623.076-.22.113-.427.113-.622V2.908c0-.17-.037-.366-.113-.586a1.947 1.947 0 00-.264-.622 1.463 1.463 0 00-.376-.476.734.734 0 00-.528-.22h-.188V.638h5.426v.366h-.189c-.2 0-.376.073-.527.22a1.46 1.46 0 00-.377.476 4.66 4.66 0 00-.264.622c-.05.22-.075.415-.075.586v20.54h8.252c.478 0 .892-.11 1.244-.33a3 3 0 00.866-.805c.252-.342.428-.696.528-1.062.126-.39.188-.745.188-1.062h.377v4.613h-15.45v-.366zM114.13.638h5.388v.366h-.188a.693.693 0 00-.49.22c-.151.122-.277.28-.377.476-.1.17-.188.378-.264.622-.05.22-.075.415-.075.586v19.514c0 .196.025.415.075.66.05.22.126.427.226.622.126.195.252.366.377.512.151.147.327.22.528.22h.188v.366h-5.388v-.366h.188a.815.815 0 00.528-.183 1.96 1.96 0 00.376-.512c.126-.22.214-.44.264-.66a3.31 3.31 0 00.075-.659V2.909c0-.17-.025-.366-.075-.586a1.931 1.931 0 00-.264-.622 1.463 1.463 0 00-.376-.476.735.735 0 00-.528-.22h-.188V.638zm27.799 14.018h5.389v.367h-.189a.73.73 0 00-.527.22 1.44 1.44 0 00-.377.475 4.693 4.693 0 00-.264.623c-.05.22-.075.415-.075.585v7.217c-.452.171-.967.318-1.545.44s-1.181.22-1.809.293a25.19 25.19 0 01-3.73.292c-2.261 0-4.233-.366-5.917-1.098-1.683-.732-3.077-1.684-4.182-2.856a12.062 12.062 0 01-2.487-4.027 13.39 13.39 0 01-.792-4.503c0-1.514.264-3.015.792-4.504a11.672 11.672 0 012.487-3.99c1.13-1.172 2.537-2.112 4.22-2.82 1.708-.732 3.731-1.098 6.067-1.098.879 0 1.696.073 2.449.22.754.146 1.42.28 1.997.402.327.074.603.147.829.22.252.049.465.073.641.073h.339v3.881h-.377c-.15-.756-.452-1.367-.904-1.83a4.3 4.3 0 00-1.507-1.062 6.618 6.618 0 00-1.847-.476 11.556 11.556 0 00-1.771-.147c-1.884 0-3.517.33-4.898.989-1.382.635-2.513 1.464-3.392 2.49a10.205 10.205 0 00-1.959 3.478 11.88 11.88 0 00-.641 3.807c0 1.416.276 2.82.829 4.21a12.253 12.253 0 002.336 3.699c1.005 1.074 2.211 1.952 3.618 2.636 1.432.659 3.014.988 4.748.988.477 0 1.068-.049 1.771-.146a6.702 6.702 0 002.11-.769v-6.009c0-.17-.025-.366-.075-.585a1.955 1.955 0 00-.264-.623 1.466 1.466 0 00-.377-.476.732.732 0 00-.527-.22h-.189v-.366zm7.58-14.018h5.201v.366a.982.982 0 00-.49.22c-.151.122-.226.305-.226.55 0 .121.037.255.113.402l5.652 9.629 5.426-9.117c.101-.195.164-.341.189-.439a.799.799 0 00.075-.366c-.05-.39-.201-.635-.452-.732-.226-.098-.364-.147-.415-.147V.638h4.032v.366c-.377 0-.766.232-1.168.696a9.79 9.79 0 00-.98 1.355l-5.878 9.885v9.482c0 .196.025.403.075.623.076.22.164.44.264.659.101.195.226.366.377.512.151.147.327.22.528.22h.188v.366h-5.389v-.366h.189a.81.81 0 00.527-.183c.151-.146.277-.317.377-.512.126-.22.214-.44.264-.66a3.31 3.31 0 00.075-.659V13.27l-6.067-10.105a14.677 14.677 0 00-.452-.659 7.7 7.7 0 00-.565-.695 3.286 3.286 0 00-.641-.55c-.226-.17-.439-.256-.64-.256h-.189V.638zM84.451 24.436h.189c.603 0 .904-.268.904-.805a1.92 1.92 0 00-.113-.623l-2.5-6.247h-8.572l-2.192 6.1a1.53 1.53 0 00-.113.55c0 .317.088.574.263.769.176.17.365.256.566.256h.188v.366h-4.183v-.366h.189c.326 0 .64-.183.942-.549.326-.39.59-.842.791-1.355L79.44.2l8.44 22.114c.176.488.415.964.716 1.428.327.463.741.695 1.244.695h.188v.366h-5.577v-.366zm-9.618-8.864h7.659L78.723 5.215l-3.89 10.357z" fill="#fff"/></svg>